<svg id="visual" viewBox="0 0 540 960" width="540" height="960" xmlns="http://www.w3.org/2000/svg" xmlns:xlink="http://www.w3.org/1999/xlink" version="1.1"><rect x="0" y="0" width="540" height="960" fill="#121212"></rect><path d="M0 600L12.8 595.3C25.7 590.7 51.3 581.3 77 583.2C102.7 585 128.3 598 154 611.5C179.7 625 205.3 639 231.2 639.7C257 640.3 283 627.7 308.8 618.2C334.7 608.7 360.3 602.3 386 603.3C411.7 604.3 437.3 612.7 463 606.3C488.7 600 514.3 579 527.2 568.5L540 558L540 961L527.2 961C514.3 961 488.7 961 463 961C437.3 961 411.7 961 386 961C360.3 961 334.7 961 308.8 961C283 961 257 961 231.2 961C205.3 961 179.7 961 154 961C128.3 961 102.7 961 77 961C51.3 961 25.7 961 12.8 961L0 961Z" fill="#121212"></path><path d="M0 663L12.8 666.2C25.7 669.3 51.3 675.7 77 685.3C102.7 695 128.3 708 154 698.2C179.7 688.3 205.3 655.7 231.2 642.3C257 629 283 635 308.8 643.2C334.7 651.3 360.3 661.7 386 673.5C411.7 685.3 437.3 698.7 463 687.5C488.7 676.3 514.3 640.7 527.2 622.8L540 605L540 961L527.2 961C514.3 961 488.7 961 463 961C437.3 961 411.7 961 386 961C360.3 961 334.7 961 308.8 961C283 961 257 961 231.2 961C205.3 961 179.7 961 154 961C128.3 961 102.7 961 77 961C51.3 961 25.7 961 12.8 961L0 961Z" fill="#1a271c"></path><path d="M0 677L12.8 687.2C25.7 697.3 51.3 717.7 77 719.3C102.7 721 128.3 704 154 691.2C179.7 678.3 205.3 669.7 231.2 667.5C257 665.3 283 669.7 308.8 670.5C334.7 671.3 360.3 668.7 386 679.8C411.7 691 437.3 716 463 729.8C488.7 743.7 514.3 746.3 527.2 747.7L540 749L540 961L527.2 961C514.3 961 488.7 961 463 961C437.3 961 411.7 961 386 961C360.3 961 334.7 961 308.8 961C283 961 257 961 231.2 961C205.3 961 179.7 961 154 961C128.3 961 102.7 961 77 961C51.3 961 25.7 961 12.8 961L0 961Z" fill="#203d25"></path><path d="M0 710L12.8 709.7C25.7 709.3 51.3 708.7 77 710.3C102.7 712 128.3 716 154 726.7C179.7 737.3 205.3 754.7 231.2 761.2C257 767.7 283 763.3 308.8 753.2C334.7 743 360.3 727 386 719.5C411.7 712 437.3 713 463 722.5C488.7 732 514.3 750 527.2 759L540 768L540 961L527.2 961C514.3 961 488.7 961 463 961C437.3 961 411.7 961 386 961C360.3 961 334.7 961 308.8 961C283 961 257 961 231.2 961C205.3 961 179.7 961 154 961C128.3 961 102.7 961 77 961C51.3 961 25.7 961 12.8 961L0 961Z" fill="#25542e"></path><path d="M0 822L12.8 818.8C25.7 815.7 51.3 809.3 77 796.2C102.7 783 128.3 763 154 763.2C179.7 763.3 205.3 783.7 231.2 792.2C257 800.7 283 797.3 308.8 795.2C334.7 793 360.3 792 386 794C411.7 796 437.3 801 463 795.8C488.7 790.7 514.3 775.3 527.2 767.7L540 760L540 961L527.2 961C514.3 961 488.7 961 463 961C437.3 961 411.7 961 386 961C360.3 961 334.7 961 308.8 961C283 961 257 961 231.2 961C205.3 961 179.7 961 154 961C128.3 961 102.7 961 77 961C51.3 961 25.7 961 12.8 961L0 961Z" fill="#276c38"></path><path d="M0 865L12.8 860.2C25.7 855.3 51.3 845.7 77 832.7C102.7 819.7 128.3 803.3 154 797.8C179.7 792.3 205.3 797.7 231.2 807C257 816.3 283 829.7 308.8 834.3C334.7 839 360.3 835 386 836C411.7 837 437.3 843 463 843C488.7 843 514.3 837 527.2 834L540 831L540 961L527.2 961C514.3 961 488.7 961 463 961C437.3 961 411.7 961 386 961C360.3 961 334.7 961 308.8 961C283 961 257 961 231.2 961C205.3 961 179.7 961 154 961C128.3 961 102.7 961 77 961C51.3 961 25.7 961 12.8 961L0 961Z" fill="#278541"></path><path d="M0 878L12.8 873.3C25.7 868.7 51.3 859.3 77 860.2C102.7 861 128.3 872 154 876.3C179.7 880.7 205.3 878.3 231.2 872.5C257 866.7 283 857.3 308.8 857.7C334.7 858 360.3 868 386 869.3C411.7 870.7 437.3 863.3 463 858.3C488.7 853.3 514.3 850.7 527.2 849.3L540 848L540 961L527.2 961C514.3 961 488.7 961 463 961C437.3 961 411.7 961 386 961C360.3 961 334.7 961 308.8 961C283 961 257 961 231.2 961C205.3 961 179.7 961 154 961C128.3 961 102.7 961 77 961C51.3 961 25.7 961 12.8 961L0 961Z" fill="#249f4a"></path><path d="M0 888L12.8 892C25.7 896 51.3 904 77 910.2C102.7 916.3 128.3 920.7 154 916.8C179.7 913 205.3 901 231.2 896.3C257 891.7 283 894.3 308.8 895.7C334.7 897 360.3 897 386 897.8C411.7 898.7 437.3 900.3 463 899C488.7 897.7 514.3 893.3 527.2 891.2L540 889L540 961L527.2 961C514.3 961 488.7 961 463 961C437.3 961 411.7 961 386 961C360.3 961 334.7 961 308.8 961C283 961 257 961 231.2 961C205.3 961 179.7 961 154 961C128.3 961 102.7 961 77 961C51.3 961 25.7 961 12.8 961L0 961Z" fill="#1db954"></path></svg>